<svg xmlns="http://www.w3.org/2000/svg" viewBox="0 0 64 64" width="64" height="64">
  <defs>
    <linearGradient id="bg" x1="0" y1="0" x2="0" y2="1">
      <stop offset="0%" stop-color="#312e81"/>
      <stop offset="100%" stop-color="#0f172a"/>
    </linearGradient>
    <linearGradient id="accent" x1="0" y1="0" x2="1" y2="1">
      <stop offset="0%" stop-color="#d946ef"/>
      <stop offset="50%" stop-color="#a855f7"/>
      <stop offset="100%" stop-color="#06b6d4"/>
    </linearGradient>
  </defs>
  <!-- Shield shape - solid, no gaps -->
  <path d="M32 3C32 3 8 12 8 12v21c0 8.4 3.6 16.4 9.6 22.2C23 60.4 27.8 63 32 64c4.2-1 9-3.6 14.4-8.8C52.4 49.4 56 41.4 56 33V12L32 3z" fill="url(#bg)" stroke="url(#accent)" stroke-width="3" stroke-linejoin="round"/>
  <!-- Inner glow line -->
  <path d="M32 10C32 10 14 17 14 17v16c0 6.6 2.8 13 7.6 17.6C25.8 54.6 29.4 56.6 32 57.4c2.6-.8 6.2-2.8 10.4-6.8C47.2 46 50 39.6 50 33V17L32 10z" fill="none" stroke="url(#accent)" stroke-width="1.5" opacity="0.4" stroke-linejoin="round"/>
  <!-- Checkmark - thick and clear -->
  <path d="M22 33L29 40L43 24" fill="none" stroke="url(#accent)" stroke-width="5" stroke-linecap="round" stroke-linejoin="round"/>
</svg>
